<svg xmlns="http://www.w3.org/2000/svg" width="360" height="100" viewBox="0 0 360 100" style="background:#fff"><g id="Page-1" fill="none" fill-rule="evenodd"><g id="Artboard-303-Copy-3"><polygon id="roof-secondary" fill="#7ACFC0" points="20 6.5 57.5 6.5 63 1 68 6.5 106 6.5 106 43.5 112 49.5 109 52.5 63 6.5 17 52.5 14 49.5 20 43.5"/><path id="Combined-Shape" fill="#B1C8C4" d="M217 78.5v-24h-16v24h-2v4h20v-4h-2zm-52 0v-24h-16v24h-2v4h20v-4h-2zm8-24h20v36h-20v-36zm10-16a9 9 0 1 0 0-18 9 9 0 0 0 0 18zm2-12v-3.71a7.01 7.01 0 0 1 4.71 4.71H185v-1zm-8.71 1a7.01 7.01 0 0 1 4.71-4.71v4.71h-4.71zm4.71 8.71a7.01 7.01 0 0 1-4.71-4.71H181v4.71zm8.71-4.71a7.01 7.01 0 0 1-4.71 4.71V31.5h4.71zM151 56.5h12v22h-12v-22zm52 0h12v22h-12v-22zm-28 0h16v34h-16v-34z"/><rect id="door-secondary" width="16" height="34" x="55" y="56.5" fill="#DF7171"/><path id="windows-tertiary" fill="#E3F7FA" d="M65 26.5v-3.71a7.01 7.01 0 0 1 4.71 4.71H65v-1zm-8.71 1A7.01 7.01 0 0 1 61 22.79v4.71h-4.71zM61 36.21a7.01 7.01 0 0 1-4.71-4.71H61v4.71zm8.71-4.71A7.01 7.01 0 0 1 65 36.21V31.5h4.71zM31 56.5h12v22H31v-22zm52 0h12v22H83v-22z"/><rect id="Rectangle-10" width="86" height="9" x="20" y="89.5" fill="#F1F5F4"/><path id="heroicon-property-shadows-copy" fill="#000000" fill-opacity=".2" d="M260 49.5l43-43 43 43v6l-43-43-43 43v-6zm7 33h20v2h-20v-2zm52 0h20v2h-20v-2z"/></g></g></svg>